<svg xmlns="http://www.w3.org/2000/svg" width="180" height="135" viewBox="0 0 500 500" version="1.1"><path d="M 11.250 163.739 C 14.412 163.937, 19.587 163.937, 22.750 163.739 C 25.912 163.541, 23.325 163.378, 17 163.378 C 10.675 163.378, 8.087 163.541, 11.250 163.739 M 9.784 170.738 C 12.689 170.941, 17.189 170.939, 19.784 170.734 C 22.378 170.528, 20 170.363, 14.500 170.365 C 9 170.368, 6.878 170.536, 9.784 170.738 M 400.699 217.698 C 396.509 228.039, 392.790 237.287, 392.434 238.250 C 391.883 239.737, 392.401 240, 395.874 240 C 399.400 240, 400.048 239.657, 400.589 237.500 C 401.183 235.135, 401.590 235, 408.133 235 C 414.590 235, 415.113 235.166, 416 237.500 C 416.796 239.594, 417.603 240, 420.967 240 L 424.984 240 423.306 235.750 C 422.383 233.412, 418.632 224.164, 414.971 215.198 L 408.315 198.896 400.699 217.698 M 286.388 200.646 C 282.931 201.394, 278.889 206.403, 278.325 210.638 C 277.645 215.733, 280.312 219.119, 288.102 223.051 C 291.914 224.976, 293.995 226.643, 293.985 227.764 C 293.938 233.019, 288.476 234.069, 279.750 230.501 C 278.258 229.891, 278 230.368, 278 233.735 C 278 237.452, 278.226 237.751, 281.866 238.842 C 286.957 240.367, 290.338 240.303, 294.401 238.606 C 298.844 236.749, 301 233.436, 301 228.465 C 301 223.727, 298.165 220.404, 290.991 216.733 C 285.218 213.779, 284.015 211.746, 286.447 209.059 C 288.478 206.814, 291.442 206.457, 295.435 207.975 C 297.878 208.904, 298 208.788, 298 205.534 C 298 203.655, 297.620 201.883, 297.155 201.596 C 295.818 200.769, 288.712 200.142, 286.388 200.646 M 371.500 201.890 C 361.519 206.497, 357.224 218.390, 361.890 228.500 C 364.436 234.016, 368.041 237.044, 373.861 238.554 C 378.708 239.811, 386.590 239.473, 387.520 237.968 C 387.779 237.548, 387.726 235.879, 387.402 234.259 C 386.825 231.377, 386.699 231.322, 381.748 231.798 C 372.765 232.661, 367.413 227.717, 367.646 218.771 C 367.838 211.382, 374.451 206.177, 382.093 207.399 C 385.949 208.016, 387 207.081, 387 203.035 C 387 199.615, 377.888 198.942, 371.500 201.890 M 191 220.500 L 191 240 194.500 240 L 198 240 198 232 L 198 224 203 224 L 208 224 208 220.500 L 208 217 203 217 L 198 217 198 212.500 L 198 208 204 208 L 210 208 210 204.500 L 210 201 200.500 201 L 191 201 191 220.500 M 217 220.500 L 217 240 220.500 240 L 224 240 224 232 C 224 224.311, 224.090 224, 226.307 224 C 228.170 224, 229.437 225.543, 232.877 232 C 237.114 239.951, 237.165 240, 241.129 240 C 243.323 240, 244.931 239.662, 244.703 239.250 C 244.474 238.838, 242.366 235.175, 240.018 231.110 C 236.265 224.614, 235.947 223.609, 237.390 222.802 C 242.634 219.867, 244.873 214.175, 243.006 208.519 C 240.962 202.323, 238.121 201, 226.865 201 L 217 201 217 220.500 M 251 220.500 L 251 240 261 240 L 271 240 271 236 L 271 232 264.500 232 L 258 232 258 228 L 258 224 263.500 224 L 269 224 269 220.552 L 269 217.105 263.750 216.802 L 258.500 216.500 258.500 212.500 L 258.500 208.500 264.250 208.200 L 270 207.900 270 204.450 L 270 201 260.500 201 L 251 201 251 220.500 M 309 220.500 L 309 240 312.500 240 L 316 240 316 232 L 316 224 322.500 224 L 329 224 329 232 L 329 240 332.500 240 L 336 240 336 220.500 L 336 201 332.542 201 L 329.084 201 328.792 208.750 L 328.500 216.500 322.500 216.500 L 316.500 216.500 316.208 208.750 L 315.916 201 312.458 201 L 309 201 309 220.500 M 432 220.500 L 432 240 435.500 240 L 439 240 439 231.930 C 439 224.170, 439.085 223.873, 441.215 224.180 C 442.836 224.414, 444.514 226.576, 447.465 232.235 C 451.401 239.781, 451.592 239.971, 455.250 239.985 C 457.313 239.993, 459 239.761, 459 239.469 C 459 239.177, 457.200 235.762, 455 231.880 C 452.800 227.997, 451 224.606, 451 224.343 C 451 224.081, 452.575 222.380, 454.500 220.565 C 457.420 217.811, 458 216.568, 458 213.066 C 458 208.294, 456.718 205.271, 453.633 202.772 C 451.943 201.403, 449.475 201.040, 441.750 201.022 L 432 201 432 220.500 M 463 204.500 C 463 207.981, 463.024 208, 467.500 208 L 472 208 472 224 L 472 240 476 240 L 480 240 480 224 L 480 208 484.500 208 C 488.976 208, 489 207.981, 489 204.500 L 489 201 476 201 L 463 201 463 204.500 M 224 212.500 L 224 217 228.800 217 C 234.018 217, 236 215.761, 236 212.500 C 236 209.239, 234.018 208, 228.800 208 L 224 208 224 212.500 M 439 212.500 L 439 217 443.965 217 C 449.817 217, 452.049 214.599, 450.124 210.374 C 449.195 208.334, 448.336 208, 444.021 208 L 439 208 439 212.500 M 407.465 219.500 C 407.047 220.600, 406.096 223.017, 405.352 224.872 C 404.609 226.727, 404 228.414, 404 228.622 C 404 228.830, 405.800 229, 408 229 C 412.640 229, 412.939 227.899, 410.038 221.500 C 408.450 217.996, 408.130 217.748, 407.465 219.500 M 137.310 285.500 C 137.315 288.800, 137.502 290.029, 137.725 288.232 C 137.947 286.435, 137.943 283.735, 137.715 282.232 C 137.486 280.729, 137.304 282.200, 137.310 285.500 M 137.300 305 C 137.300 308.025, 137.487 309.262, 137.716 307.750 C 137.945 306.238, 137.945 303.762, 137.716 302.250 C 137.487 300.738, 137.300 301.975, 137.300 305" stroke="none" fill="#3a4a3d" fill-rule="evenodd"/><path d="M 64.500 193.729 C 126.799 194.421, 174.767 194.430, 174.346 193.750 C 174.091 193.338, 143.871 193.104, 107.191 193.231 C 70.511 193.359, 51.300 193.583, 64.500 193.729 M 190.228 220.250 L 190.455 240.500 190.749 220.786 L 191.042 201.072 200.771 200.745 L 210.500 200.419 200.250 200.209 L 190 200 190.228 220.250 M 221.280 200.736 C 223.909 200.943, 227.959 200.940, 230.280 200.731 C 232.601 200.521, 230.450 200.352, 225.500 200.355 C 220.550 200.358, 218.651 200.530, 221.280 200.736 M 260.192 200.745 L 269.884 201.071 270.274 204.786 L 270.664 208.500 270.832 204.250 L 271 200 260.750 200.209 L 250.500 200.419 260.192 200.745 M 310.762 200.707 C 312.006 200.946, 313.806 200.937, 314.762 200.687 C 315.718 200.437, 314.700 200.241, 312.500 200.252 C 310.300 200.263, 309.518 200.468, 310.762 200.707 M 330.762 200.707 C 332.006 200.946, 333.806 200.937, 334.762 200.687 C 335.718 200.437, 334.700 200.241, 332.500 200.252 C 330.300 200.263, 329.518 200.468, 330.762 200.707 M 431.228 220.250 L 431.455 240.500 431.749 220.789 L 432.042 201.077 440.771 200.744 L 449.500 200.411 440.250 200.206 L 431 200 431.228 220.250 M 462.168 204.250 L 462.336 208.500 462.728 204.750 L 463.121 201 476 201 L 488.879 201 489.272 204.750 L 489.664 208.500 489.832 204.250 L 490 200 476 200 L 462 200 462.168 204.250 M 378.250 207.689 C 379.212 207.941, 380.788 207.941, 381.750 207.689 C 382.712 207.438, 381.925 207.232, 380 207.232 C 378.075 207.232, 377.288 207.438, 378.250 207.689 M 224.286 212.500 C 224.294 215.250, 224.488 216.256, 224.718 214.736 C 224.947 213.216, 224.941 210.966, 224.704 209.736 C 224.467 208.506, 224.279 209.750, 224.286 212.500 M 258.381 212.500 L 258.500 216.500 263.756 216.587 L 269.011 216.674 264.063 216.287 C 259.186 215.905, 259.109 215.846, 258.688 212.200 L 258.262 208.500 258.381 212.500 M 200.250 216.716 C 201.762 216.945, 204.238 216.945, 205.750 216.716 C 207.262 216.487, 206.025 216.300, 203 216.300 C 199.975 216.300, 198.738 216.487, 200.250 216.716 M 319.768 216.725 C 321.565 216.947, 324.265 216.943, 325.768 216.715 C 327.271 216.486, 325.800 216.304, 322.500 216.310 C 319.200 216.315, 317.971 216.502, 319.768 216.725 M 224.201 232.250 L 224.402 240.500 224.742 232.814 C 225.052 225.812, 225.278 225.090, 227.291 224.700 C 229.135 224.343, 229.046 224.250, 226.750 224.136 L 224 224 224.201 232.250 M 258.272 228 C 258.272 230.475, 258.467 231.488, 258.706 230.250 C 258.944 229.012, 258.944 226.988, 258.706 225.750 C 258.467 224.512, 258.272 225.525, 258.272 228 M 404 228.224 C 404 228.651, 405.800 229, 408 229 C 410.200 229, 412 228.822, 412 228.605 C 412 228.388, 410.200 228.038, 408 227.829 C 405.800 227.619, 404 227.797, 404 228.224 M 403 235.614 C 408.969 236.365, 415.775 236.440, 415.347 235.750 C 415.091 235.338, 411.646 235.067, 407.691 235.150 C 403.736 235.232, 401.625 235.441, 403 235.614 M 72.750 276.740 C 76.188 276.936, 81.813 276.936, 85.250 276.740 C 88.688 276.545, 85.875 276.385, 79 276.385 C 72.125 276.385, 69.313 276.545, 72.750 276.740 M 63.445 300.141 C 58.486 301.464, 55.500 305.418, 55.500 310.663 C 55.500 314.483, 55.994 315.605, 58.766 318.082 C 64.622 323.314, 72.949 321.365, 75.978 314.053 C 79.097 306.524, 71.429 298.012, 63.445 300.141 M 169.946 324.750 L 166.500 328.500 170.250 325.054 C 172.313 323.158, 174 321.471, 174 321.304 C 174 320.540, 173.154 321.260, 169.946 324.750" stroke="none" fill="#465a65" fill-rule="evenodd"/><path d="M 308.422 220 C 308.422 231.275, 308.568 235.887, 308.746 230.250 C 308.924 224.613, 308.924 215.387, 308.746 209.750 C 308.568 204.113, 308.422 208.725, 308.422 220 M 316.349 208 C 316.349 212.675, 316.522 214.588, 316.732 212.250 C 316.943 209.912, 316.943 206.088, 316.732 203.750 C 316.522 201.412, 316.349 203.325, 316.349 208 M 328.349 208 C 328.349 212.675, 328.522 214.588, 328.732 212.250 C 328.943 209.912, 328.943 206.088, 328.732 203.750 C 328.522 201.412, 328.349 203.325, 328.349 208 M 269.252 220.500 C 269.263 222.700, 269.468 223.482, 269.707 222.238 C 269.946 220.994, 269.937 219.194, 269.687 218.238 C 269.437 217.282, 269.241 218.300, 269.252 220.500 M 359.232 220 C 359.232 221.925, 359.438 222.713, 359.689 221.750 C 359.941 220.787, 359.941 219.213, 359.689 218.250 C 359.438 217.287, 359.232 218.075, 359.232 220 M 316.349 232 C 316.349 236.675, 316.522 238.588, 316.732 236.250 C 316.943 233.912, 316.943 230.088, 316.732 227.750 C 316.522 225.412, 316.349 227.325, 316.349 232 M 328.349 232 C 328.349 236.675, 328.522 238.588, 328.732 236.250 C 328.943 233.912, 328.943 230.088, 328.732 227.750 C 328.522 225.412, 328.349 227.325, 328.349 232 M 271.272 236 C 271.272 238.475, 271.467 239.488, 271.706 238.250 C 271.944 237.012, 271.944 234.988, 271.706 233.750 C 271.467 232.512, 271.272 233.525, 271.272 236 M 132 262.935 C 123.592 265.502, 115.057 272.826, 110.946 281 C 107.914 287.031, 107.206 297.757, 109.353 305.143 C 116.270 328.936, 147.329 336.671, 165 319 C 171.661 312.339, 174.460 305.225, 174.442 295 C 174.429 287.623, 174.041 285.728, 171.505 280.655 C 165.657 268.957, 154.176 261.920, 141.212 262.086 C 137.521 262.133, 133.375 262.515, 132 262.935 M 138.571 277.571 C 137.496 278.647, 137 281.015, 137 285.071 L 137 291 131.071 291 C 127.015 291, 124.647 291.496, 123.571 292.571 C 119.728 296.415, 122.594 299, 130.700 299 L 137 299 137 305.378 C 137 312.356, 138.248 314.386, 142.195 313.827 C 144.327 313.524, 144.522 312.957, 144.794 306.250 L 145.088 299 152.009 299 C 157.713 299, 159.103 298.676, 159.917 297.155 C 160.628 295.826, 160.482 294.705, 159.396 293.155 C 158.116 291.328, 156.907 291, 151.443 291 L 145 291 145 284.700 C 145 276.594, 142.415 273.728, 138.571 277.571" stroke="none" fill="#4cb050" fill-rule="evenodd"/><path d="M 40.980 195.250 C 40.908 199.830, 50.512 252.999, 51.410 252.992 C 52.009 252.987, 66.875 251.205, 84.445 249.031 C 118.933 244.764, 119.552 244.785, 118.756 250.206 C 118.434 252.403, 118.691 252.930, 119.921 252.593 C 120.790 252.354, 128.475 251.374, 137 250.414 C 145.525 249.454, 152.649 248.556, 152.831 248.420 C 153.013 248.283, 152.632 247.180, 151.983 245.969 C 150.231 242.695, 152.690 240.848, 160.159 239.827 C 163.609 239.355, 166.822 238.578, 167.300 238.100 C 168.123 237.277, 173.901 201.018, 173.968 196.250 L 174 194 107.500 194 C 54.977 194, 40.996 194.263, 40.980 195.250 M 207.851 265.129 C 206.351 265.678, 204.646 267.440, 203.923 269.187 C 200.431 277.616, 213.374 282.933, 217.873 274.918 C 219.855 271.387, 218.647 267.386, 215.035 265.518 C 211.717 263.802, 211.502 263.791, 207.851 265.129 M 227.667 264.667 C 227.300 265.033, 227 268.408, 227 272.167 C 227 278.333, 227.195 279, 229 279 C 230.682 279, 231 278.333, 231 274.803 L 231 270.606 234.087 274.803 C 235.887 277.252, 237.988 279, 239.130 279 C 240.920 279, 241.063 278.381, 240.794 271.750 C 240.565 266.103, 240.168 264.500, 239 264.500 C 237.946 264.500, 237.408 265.784, 237.189 268.814 L 236.879 273.129 233.394 268.564 C 229.942 264.044, 228.959 263.375, 227.667 264.667 M 250 271.500 L 250 279 255 279 C 258.778 279, 260 278.633, 260 277.500 C 260 276.452, 258.944 276, 256.500 276 L 253 276 253 270 C 253 265.333, 252.667 264, 251.500 264 C 250.300 264, 250 265.500, 250 271.500 M 267.667 264.667 C 267.300 265.033, 267 268.408, 267 272.167 C 267 278.333, 267.195 279, 269 279 C 270.822 279, 271 278.333, 271 271.500 C 271 265.917, 270.659 264, 269.667 264 C 268.933 264, 268.033 264.300, 267.667 264.667 M 280.667 264.667 C 280.300 265.033, 280 268.408, 280 272.167 C 280 278.333, 280.195 279, 282 279 C 283.682 279, 284 278.333, 284 274.803 L 284 270.606 287.087 274.803 C 288.887 277.252, 290.988 279, 292.130 279 C 293.920 279, 294.063 278.381, 293.794 271.750 C 293.565 266.103, 293.168 264.500, 292 264.500 C 290.946 264.500, 290.408 265.784, 290.189 268.814 L 289.879 273.129 286.394 268.564 C 282.942 264.044, 281.959 263.375, 280.667 264.667 M 303 271.500 L 303 279 309 279 C 313.667 279, 315 278.667, 315 277.500 C 315 276.417, 313.889 276, 311 276 C 308.111 276, 307 275.583, 307 274.500 C 307 273.446, 308.065 273, 310.583 273 C 315.102 273, 314.757 270.639, 310.173 270.187 C 305.632 269.738, 305.913 267, 310.500 267 C 312.944 267, 314 266.548, 314 265.500 C 314 264.348, 312.722 264, 308.500 264 L 303 264 303 271.500 M 336.250 265.505 C 332.647 268.081, 333.383 270.813, 338.250 272.932 C 341.726 274.446, 342.170 274.917, 340.686 275.523 C 339.689 275.930, 337.814 275.781, 336.520 275.191 C 334.679 274.352, 334.049 274.429, 333.621 275.544 C 332.239 279.146, 341.962 280.320, 344.396 276.845 C 346.365 274.035, 345.063 271.566, 340.834 270.092 C 338.538 269.292, 337.933 268.667, 338.706 267.894 C 339.478 267.122, 340.388 267.138, 341.907 267.950 C 343.628 268.871, 344.145 268.786, 344.638 267.500 C 345.406 265.501, 345.038 265.152, 341.427 264.458 C 339.557 264.099, 337.688 264.477, 336.250 265.505 M 358 264.689 C 352.717 266.704, 351.216 273.260, 355.189 276.961 C 360.102 281.538, 368 278.267, 368 271.655 C 368 266.760, 362.540 262.956, 358 264.689 M 376.667 264.667 C 376.300 265.033, 376 268.408, 376 272.167 L 376 279 381 279 C 384.778 279, 386 278.633, 386 277.500 C 386 276.500, 385 276, 383 276 L 380 276 380 270 C 380 265.667, 379.630 264, 378.667 264 C 377.933 264, 377.033 264.300, 376.667 264.667 M 394.688 264.646 C 394.309 265.024, 394 267.508, 394 270.167 C 394 275.845, 396.432 279, 400.809 279 C 405.714 279, 407.231 277.026, 407.373 270.455 C 407.478 265.583, 407.197 264.501, 405.750 264.208 C 404.278 263.910, 403.998 264.619, 403.985 268.677 C 403.967 274.347, 402.968 276.331, 400.380 275.840 C 398.895 275.558, 398.395 274.345, 398 270.069 C 397.534 265.022, 396.312 263.022, 394.688 264.646 M 415.710 264.623 C 414.402 265.931, 414.982 267, 417 267 C 418.778 267, 419 267.667, 419 273 C 419 278.282, 419.233 279, 420.950 279 C 422.623 279, 422.943 278.182, 423.200 273.250 C 423.468 268.111, 423.745 267.465, 425.808 267.173 C 427.077 266.993, 427.941 266.318, 427.729 265.673 C 427.304 264.386, 416.860 263.473, 415.710 264.623 M 435.688 264.646 C 435.309 265.024, 435 268.408, 435 272.167 C 435 278.382, 435.185 279, 437.044 279 C 438.940 279, 439.066 278.480, 438.794 271.830 C 438.525 265.276, 437.478 262.855, 435.688 264.646 M 451.500 265.131 C 446.616 267.861, 445.704 272.082, 449.073 276.365 C 452.884 281.211, 461.065 279.099, 462.530 272.891 C 463.723 267.836, 456.169 262.521, 451.500 265.131 M 471 271.500 C 471 277.500, 471.300 279, 472.500 279 C 473.593 279, 474.008 277.848, 474.030 274.750 L 474.060 270.500 477.780 274.765 C 483.117 280.884, 484 280.421, 484 271.500 C 484 265.626, 483.687 264, 482.555 264 C 481.547 264, 481.017 265.399, 480.805 268.626 L 480.500 273.252 477.188 268.626 C 472.302 261.802, 471 262.406, 471 271.500 M 209.751 267.748 C 207.506 268.259, 206.398 272.570, 208.011 274.513 C 210.564 277.589, 215 275.572, 215 271.335 C 215 268.847, 212.482 267.126, 209.751 267.748 M 358.690 268.154 C 356.523 269.367, 356.445 274.573, 358.582 275.393 C 361.349 276.455, 362.900 276.056, 364 274 C 365.957 270.344, 362.189 266.196, 358.690 268.154 M 452.593 268.309 C 448.843 271.050, 452.839 277.853, 456.750 275.386 C 459.129 273.885, 458.958 270.048, 456.438 268.375 C 454.736 267.245, 454.063 267.233, 452.593 268.309" stroke="none" fill="#fec107" fill-rule="evenodd"/><path d="M 2.638 165.500 C 1.180 169.300, 2.840 169.999, 13.357 170.015 C 18.936 170.024, 23.987 170.361, 24.583 170.765 C 25.178 171.169, 29.828 192.425, 34.917 218 C 40.005 243.575, 44.957 266.305, 45.922 268.511 C 48.208 273.739, 53.353 278.809, 58.989 281.389 C 62.677 283.077, 66.015 283.521, 77.281 283.823 C 92.005 284.219, 94.373 283.611, 93.798 279.588 C 93.515 277.603, 92.754 277.474, 78.394 276.978 C 64.150 276.486, 63.057 276.304, 59.267 273.795 C 54.786 270.830, 50.670 264.954, 51.188 262.263 C 51.445 260.929, 52.969 260.322, 57.513 259.745 C 67.177 258.519, 87.435 256.110, 102.500 254.395 C 110.456 253.489, 117.084 252.244, 117.853 251.512 C 119.953 249.510, 118.360 246, 115.351 246 C 113.367 246, 88.134 248.947, 52.790 253.308 C 50.560 253.583, 49.988 253.187, 49.559 251.071 C 48.914 247.890, 40 194.211, 40 193.509 C 40 193.229, 70.375 193, 107.500 193 C 144.625 193, 175 193.170, 175 193.377 C 175 193.585, 173.651 202.922, 172.003 214.127 C 170.354 225.332, 169.004 235.030, 169.003 235.679 C 168.998 237.865, 165.878 240, 162.679 240.006 C 157.143 240.015, 152 241.903, 152 243.925 C 152 247.152, 154.336 248.092, 160.630 247.399 C 167.693 246.621, 172.032 244.779, 173.918 241.759 C 174.688 240.527, 176.971 228.109, 178.992 214.163 C 182.146 192.395, 182.467 188.610, 181.261 187.404 C 180.082 186.225, 168.308 186, 107.643 186 L 35.429 186 33.629 176.750 C 32.639 171.662, 31.612 166.713, 31.347 165.750 C 30.918 164.191, 29.357 164, 17.040 164 C 5.673 164, 3.112 164.267, 2.638 165.500 M 132 255.367 C 111.416 259.858, 97.153 281.103, 100.867 301.740 C 103.343 315.495, 111.694 326.588, 123.938 332.391 C 130.046 335.285, 131.263 335.500, 141.524 335.500 C 151.929 335.500, 152.916 335.319, 159.113 332.266 C 171.228 326.300, 180.153 314.142, 181.799 301.362 C 184.647 279.255, 170.375 259.016, 149.114 255.014 C 142.458 253.761, 139.040 253.832, 132 255.367 M 135.407 262.020 C 125.807 263.948, 118.214 268.941, 113.068 276.711 C 104.144 290.184, 106.396 308.464, 118.377 319.795 C 125.258 326.303, 131.220 328.500, 142 328.500 C 149.264 328.500, 151.321 328.097, 156.142 325.730 C 162.779 322.470, 169.343 315.728, 172.259 309.176 C 175.449 302.005, 175.756 291.015, 172.976 283.500 C 170.055 275.607, 160.822 266.278, 153.500 263.824 C 146.991 261.643, 140.504 260.996, 135.407 262.020 M 139.724 277.134 C 138.370 277.892, 138 279.483, 138 284.550 L 138 291 132 291 C 127.311 291, 125.558 291.442, 123.977 293.023 C 122.391 294.609, 122.178 295.463, 122.988 296.977 C 123.824 298.540, 125.310 298.966, 130.761 299.205 L 137.500 299.500 138 306.500 C 138.461 312.949, 138.688 313.527, 140.887 313.837 C 144.143 314.298, 144.967 312.572, 144.985 305.250 L 145 299 151.300 299 C 157.798 299, 160 297.946, 160 294.835 C 160 292.265, 156.888 291, 150.566 291 L 145 291 145 284.535 C 145 279.366, 144.644 277.880, 143.224 277.120 C 142.098 276.517, 140.818 276.522, 139.724 277.134 M 58.239 293.597 C 43.668 301.031, 44.250 321.195, 59.218 327.447 C 66.769 330.601, 75.486 328.163, 80.591 321.469 C 82.942 318.387, 83.509 316.546, 83.778 311.110 C 84.157 303.479, 82.569 300.061, 76.487 295.423 C 71.845 291.882, 63.280 291.025, 58.239 293.597 M 62.021 300.116 C 58.137 301.665, 56.093 303.990, 55.409 307.631 C 53.938 315.477, 58.330 321, 66.042 321 C 70.228 321, 71.162 320.580, 73.896 317.465 C 78.992 311.662, 77.304 303.279, 70.466 300.421 C 66.559 298.789, 65.447 298.749, 62.021 300.116" stroke="none" fill="#2c472e" fill-rule="evenodd"/><path d="M 0 250.002 L 0 500.004 250.250 499.752 L 500.500 499.500 500.752 249.750 L 501.004 0 250.502 0 L 0 0 0 250.002 M 0.492 250.500 C 0.492 388, 0.608 444.101, 0.750 375.170 C 0.892 306.238, 0.892 193.738, 0.750 125.170 C 0.608 56.601, 0.492 113, 0.492 250.500 M 3.200 164.200 C 1.486 165.914, 1.718 169.678, 3.582 170.393 C 4.452 170.727, 9.627 171, 15.082 171 C 20.537 171, 25 171.126, 25 171.280 C 25 171.434, 29.248 192.774, 34.441 218.703 C 40.120 247.063, 44.667 267.371, 45.853 269.673 C 48.473 274.759, 53.485 279.428, 59 281.921 C 62.854 283.664, 65.589 283.959, 78.050 283.978 C 92.528 284, 95 283.474, 95 280.371 C 95 279.696, 94.293 278.436, 93.429 277.571 C 92.161 276.304, 89.305 275.996, 78.679 275.978 C 61.204 275.949, 56.355 273.881, 52.582 264.849 L 51.087 261.272 59.793 260.137 C 64.582 259.513, 76.375 258.087, 86 256.967 C 95.625 255.847, 108 254.285, 113.500 253.496 C 126.708 251.601, 145.908 249.251, 154 248.540 C 168.487 247.266, 171.469 246.266, 174.479 241.672 C 176.237 238.990, 183.350 191.682, 182.512 188.250 L 181.962 186 108.981 186 C 68.841 186, 36 185.825, 36 185.610 C 36 183.158, 31.702 165.345, 30.867 164.340 C 29.376 162.543, 4.980 162.420, 3.200 164.200 M 399.345 219.272 L 391.191 239.500 395.343 239.820 C 398.650 240.074, 399.776 239.718, 400.870 238.070 C 402.024 236.332, 403.281 236, 408.716 236 C 414.346 236, 415.255 236.260, 415.710 238 C 416.133 239.616, 417.074 240, 420.617 240 C 423.027 240, 425 239.615, 425 239.145 C 425 237.429, 409.172 199.558, 408.349 199.304 C 407.882 199.161, 403.830 208.146, 399.345 219.272 M 190 220 L 190 240 194 240 L 198 240 198 232 L 198 224 203 224 L 208 224 208 220 L 208 216 203 216 L 198 216 198 212 L 198 208 204 208 L 210 208 210 204 L 210 200 200 200 L 190 200 190 220 M 217 220 L 217 240 221 240 L 225 240 225 232.500 C 225 226.021, 225.238 225.001, 226.750 225.008 C 227.902 225.014, 229.864 227.577, 232.492 232.508 L 236.483 240 240.742 240 C 243.084 240, 245 239.754, 245 239.453 C 245 239.152, 243.190 235.607, 240.977 231.576 L 236.954 224.246 240.477 220.723 C 243.376 217.824, 244 216.465, 244 213.050 C 244 203.332, 239.417 200, 226.050 200 L 217 200 217 220 M 251 220 L 251 240 261.500 240 L 272 240 272 236 L 272 232 265.500 232 L 259 232 259 228 L 259 224 264.560 224 L 270.121 224 269.810 220.250 L 269.500 216.500 264.250 216.198 L 259 215.895 259 211.948 L 259 208 265 208 L 271 208 271 204 L 271 200 261 200 L 251 200 251 220 M 281.516 203.284 C 278.545 206.255, 278 207.492, 278 211.265 C 278 217.016, 280.327 219.974, 287.534 223.386 C 292.528 225.750, 293.096 226.329, 292.815 228.768 C 292.544 231.120, 291.992 231.542, 288.848 231.805 C 286.840 231.972, 283.625 231.452, 281.704 230.650 L 278.212 229.191 277.606 232.220 C 277.273 233.887, 277 235.825, 277 236.527 C 277 239.828, 290.777 241.201, 296.128 238.434 C 297.875 237.531, 299.794 235.344, 300.660 233.272 C 303.647 226.122, 300.167 220.122, 290.683 216.071 C 286.407 214.245, 285.901 213.704, 286.183 211.257 C 286.489 208.594, 286.694 208.504, 292.165 208.610 L 297.830 208.721 298.479 205.258 C 298.837 203.354, 298.858 201.524, 298.526 201.193 C 298.195 200.861, 295.022 200.405, 291.477 200.179 C 285.212 199.781, 284.932 199.868, 281.516 203.284 M 308 220 L 308 240 312.500 240 L 317 240 317 232 L 317 224 322.500 224 L 328 224 328 232 L 328 240 332 240 L 336 240 336 220 L 336 200 332 200 L 328 200 328 208 L 328 216 322.500 216 L 317 216 317 208 L 317 200 312.500 200 L 308 200 308 220 M 370.500 201.519 C 365.562 203.999, 361.208 209.710, 359.942 215.368 C 357.092 228.104, 366.302 240.024, 378.962 239.986 C 386.738 239.963, 388 239.274, 388 235.050 C 388 230.314, 387.619 229.997, 383.460 231.274 C 372.650 234.591, 364.028 223.026, 370.004 213.225 C 372.497 209.136, 376.163 207.665, 382.148 208.350 L 386.795 208.881 387.243 205.191 C 387.493 203.126, 387.208 201.176, 386.595 200.765 C 384.632 199.448, 373.594 199.965, 370.500 201.519 M 431 219.909 L 431 240 435 240 L 439 240 439 232.500 C 439 225.757, 439.195 225, 440.930 225 C 442.297 225, 444.067 227.188, 447 232.500 L 451.140 240 455.596 240 L 460.051 240 458.502 237.004 C 457.650 235.356, 455.593 231.701, 453.931 228.883 C 452.269 226.064, 451.042 223.676, 451.205 223.576 C 455.787 220.762, 457.018 219.477, 458.010 216.470 C 459.642 211.523, 458.549 206.901, 454.924 203.425 C 452.012 200.633, 451.400 200.485, 441.437 200.159 L 431 199.818 431 219.909 M 462 204 L 462 208 467 208 L 472 208 472 224 L 472 240 476 240 L 480 240 480 224 L 480 208 485 208 L 490 208 490 204 L 490 200 476 200 L 462 200 462 204 M 225 212.500 L 225 217 228.750 216.985 C 233.630 216.965, 235.250 215.847, 235.250 212.500 C 235.250 209.153, 233.630 208.035, 228.750 208.015 L 225 208 225 212.500 M 439 212.500 L 439 217 443.300 217 C 448.112 217, 450 215.686, 450 212.335 C 450 209.569, 447.310 208, 442.566 208 C 439.006 208, 439 208.008, 439 212.500 M 406.609 223.020 C 404.528 228.219, 404.448 228, 408.439 228 L 411.879 228 410.345 223.500 C 409.502 221.025, 408.678 219, 408.515 219 C 408.351 219, 407.493 220.809, 406.609 223.020 M 128.487 255.743 C 116.401 260.057, 109.119 266.576, 103.626 278 C 100.707 284.070, 100.500 285.230, 100.500 295.521 C 100.500 305.915, 100.683 306.914, 103.723 313.090 C 110.777 327.418, 125.728 337.021, 140.932 336.988 C 162.742 336.942, 181.086 320.167, 182.698 298.794 C 184.030 281.120, 175.131 265.620, 159.127 257.742 C 153.452 254.948, 151.482 254.520, 143.079 254.255 C 135.812 254.026, 132.290 254.385, 128.487 255.743 M 207.851 265.129 C 206.351 265.678, 204.646 267.440, 203.923 269.187 C 200.431 277.616, 213.374 282.933, 217.873 274.918 C 219.855 271.387, 218.647 267.386, 215.035 265.518 C 211.717 263.802, 211.502 263.791, 207.851 265.129 M 227.667 264.667 C 227.300 265.033, 227 268.408, 227 272.167 C 227 278.333, 227.195 279, 229 279 C 230.682 279, 231 278.333, 231 274.803 L 231 270.606 234.087 274.803 C 235.887 277.252, 237.988 279, 239.130 279 C 240.920 279, 241.063 278.381, 240.794 271.750 C 240.565 266.103, 240.168 264.500, 239 264.500 C 237.946 264.500, 237.408 265.784, 237.189 268.814 L 236.879 273.129 233.394 268.564 C 229.942 264.044, 228.959 263.375, 227.667 264.667 M 250 271.500 L 250 279 255 279 C 258.778 279, 260 278.633, 260 277.500 C 260 276.452, 258.944 276, 256.500 276 L 253 276 253 270 C 253 265.333, 252.667 264, 251.500 264 C 250.300 264, 250 265.500, 250 271.500 M 267.667 264.667 C 267.300 265.033, 267 268.408, 267 272.167 C 267 278.333, 267.195 279, 269 279 C 270.822 279, 271 278.333, 271 271.500 C 271 265.917, 270.659 264, 269.667 264 C 268.933 264, 268.033 264.300, 267.667 264.667 M 280.667 264.667 C 280.300 265.033, 280 268.408, 280 272.167 C 280 278.333, 280.195 279, 282 279 C 283.682 279, 284 278.333, 284 274.803 L 284 270.606 287.087 274.803 C 288.887 277.252, 290.988 279, 292.130 279 C 293.920 279, 294.063 278.381, 293.794 271.750 C 293.565 266.103, 293.168 264.500, 292 264.500 C 290.946 264.500, 290.408 265.784, 290.189 268.814 L 289.879 273.129 286.394 268.564 C 282.942 264.044, 281.959 263.375, 280.667 264.667 M 303 271.500 L 303 279 309 279 C 313.667 279, 315 278.667, 315 277.500 C 315 276.417, 313.889 276, 311 276 C 308.111 276, 307 275.583, 307 274.500 C 307 273.446, 308.065 273, 310.583 273 C 315.102 273, 314.757 270.639, 310.173 270.187 C 305.632 269.738, 305.913 267, 310.500 267 C 312.944 267, 314 266.548, 314 265.500 C 314 264.348, 312.722 264, 308.500 264 L 303 264 303 271.500 M 336.250 265.505 C 332.647 268.081, 333.383 270.813, 338.250 272.932 C 341.726 274.446, 342.170 274.917, 340.686 275.523 C 339.689 275.930, 337.814 275.781, 336.520 275.191 C 334.679 274.352, 334.049 274.429, 333.621 275.544 C 332.239 279.146, 341.962 280.320, 344.396 276.845 C 346.365 274.035, 345.063 271.566, 340.834 270.092 C 338.538 269.292, 337.933 268.667, 338.706 267.894 C 339.478 267.122, 340.388 267.138, 341.907 267.950 C 343.628 268.871, 344.145 268.786, 344.638 267.500 C 345.406 265.501, 345.038 265.152, 341.427 264.458 C 339.557 264.099, 337.688 264.477, 336.250 265.505 M 358 264.689 C 352.717 266.704, 351.216 273.260, 355.189 276.961 C 360.102 281.538, 368 278.267, 368 271.655 C 368 266.760, 362.540 262.956, 358 264.689 M 376.667 264.667 C 376.300 265.033, 376 268.408, 376 272.167 L 376 279 381 279 C 384.778 279, 386 278.633, 386 277.500 C 386 276.500, 385 276, 383 276 L 380 276 380 270 C 380 265.667, 379.630 264, 378.667 264 C 377.933 264, 377.033 264.300, 376.667 264.667 M 394.688 264.646 C 394.309 265.024, 394 267.508, 394 270.167 C 394 275.845, 396.432 279, 400.809 279 C 405.714 279, 407.231 277.026, 407.373 270.455 C 407.478 265.583, 407.197 264.501, 405.750 264.208 C 404.278 263.910, 403.998 264.619, 403.985 268.677 C 403.967 274.347, 402.968 276.331, 400.380 275.840 C 398.895 275.558, 398.395 274.345, 398 270.069 C 397.534 265.022, 396.312 263.022, 394.688 264.646 M 415.710 264.623 C 414.402 265.931, 414.982 267, 417 267 C 418.778 267, 419 267.667, 419 273 C 419 278.282, 419.233 279, 420.950 279 C 422.623 279, 422.943 278.182, 423.200 273.250 C 423.468 268.111, 423.745 267.465, 425.808 267.173 C 427.077 266.993, 427.941 266.318, 427.729 265.673 C 427.304 264.386, 416.860 263.473, 415.710 264.623 M 435.688 264.646 C 435.309 265.024, 435 268.408, 435 272.167 C 435 278.382, 435.185 279, 437.044 279 C 438.940 279, 439.066 278.480, 438.794 271.830 C 438.525 265.276, 437.478 262.855, 435.688 264.646 M 451.500 265.131 C 446.616 267.861, 445.704 272.082, 449.073 276.365 C 452.884 281.211, 461.065 279.099, 462.530 272.891 C 463.723 267.836, 456.169 262.521, 451.500 265.131 M 471 271.500 C 471 277.500, 471.300 279, 472.500 279 C 473.593 279, 474.008 277.848, 474.030 274.750 L 474.060 270.500 477.780 274.765 C 483.117 280.884, 484 280.421, 484 271.500 C 484 265.626, 483.687 264, 482.555 264 C 481.547 264, 481.017 265.399, 480.805 268.626 L 480.500 273.252 477.188 268.626 C 472.302 261.802, 471 262.406, 471 271.500 M 209.751 267.748 C 207.506 268.259, 206.398 272.570, 208.011 274.513 C 210.564 277.589, 215 275.572, 215 271.335 C 215 268.847, 212.482 267.126, 209.751 267.748 M 358.690 268.154 C 356.523 269.367, 356.445 274.573, 358.582 275.393 C 361.349 276.455, 362.900 276.056, 364 274 C 365.957 270.344, 362.189 266.196, 358.690 268.154 M 452.593 268.309 C 448.843 271.050, 452.839 277.853, 456.750 275.386 C 459.129 273.885, 458.958 270.048, 456.438 268.375 C 454.736 267.245, 454.063 267.233, 452.593 268.309 M 59.655 292.459 C 45.591 297.473, 42.644 316.525, 54.531 325.591 C 57.610 327.940, 59.460 328.510, 64.890 328.784 C 72.889 329.188, 77.103 327.263, 81.360 321.259 C 88.775 310.803, 83.472 295.447, 71.277 292.060 C 66.415 290.710, 64.363 290.780, 59.655 292.459" stroke="none" fill="#fbf9f2" fill-rule="evenodd"/></svg>